<?xml version="1.0" encoding="utf-8"?>
<!-- Generator: Adobe Illustrator 17.0.0, SVG Export Plug-In . SVG Version: 6.00 Build 0)  -->
<!DOCTYPE svg PUBLIC "-//W3C//DTD SVG 1.1//EN" "http://www.w3.org/Graphics/SVG/1.1/DTD/svg11.dtd">
<svg version="1.1" id="Шар_1" xmlns="http://www.w3.org/2000/svg" xmlns:xlink="http://www.w3.org/1999/xlink" x="0px" y="0px"
	 width="94px" height="94px" viewBox="0 0 94 94" enable-background="new 0 0 94 94" xml:space="preserve">
<g>
	<g>
		<path fill="#E83D3C" d="M47.4,94.185c-25.576,0-46.385-20.808-46.385-46.385S21.824,1.414,47.4,1.414
			c25.577,0,46.386,20.809,46.386,46.386S72.977,94.185,47.4,94.185z M47.4,6.415c-22.819,0-41.385,18.565-41.385,41.386
			c0,22.819,18.565,41.385,41.385,41.385s41.386-18.565,41.386-41.385C88.785,24.98,70.22,6.415,47.4,6.415z"/>
	</g>
	<g>
		<g>
			<path fill="#E83D3C" d="M43.183,58.925H31.06v-25.2h12.196v3.96h-8.18v6.372h5.002l-1.132,3.78h-3.87v7.487h8.105L43.183,58.925
				L43.183,58.925z"/>
		</g>
		<g>
			<path fill="#E83D3C" d="M48.915,57.124c0,0.48-0.184,0.9-0.548,1.261c-0.365,0.359-0.805,0.54-1.314,0.54
				c-0.487,0-0.913-0.181-1.278-0.54c-0.364-0.36-0.548-0.78-0.548-1.261c0-0.504,0.184-0.936,0.548-1.296
				c0.365-0.359,0.791-0.54,1.278-0.54c0.511,0,0.949,0.181,1.314,0.54C48.733,56.188,48.915,56.619,48.915,57.124z"/>
		</g>
		<g>
			<path fill="#E83D3C" d="M59.688,58.925H55.67V37.72h-5.258v-3.996h14.68v3.996h-5.404V58.925L59.688,58.925z"/>
		</g>
		<g>
			<path fill="#E83D3C" d="M65.092,57.124c0,0.48-0.183,0.9-0.548,1.261c-0.365,0.359-0.804,0.54-1.314,0.54
				c-0.486,0-0.912-0.181-1.277-0.54c-0.365-0.36-0.548-0.78-0.548-1.261c0-0.504,0.183-0.936,0.548-1.296
				c0.365-0.359,0.791-0.54,1.277-0.54c0.512,0,0.949,0.181,1.314,0.54C64.91,56.188,65.092,56.619,65.092,57.124z"/>
		</g>
	</g>
</g>
<g>
	<g>
		
			<linearGradient id="SVGID_1_" gradientUnits="userSpaceOnUse" x1="410.9407" y1="-429.5965" x2="410.9407" y2="-522.3675" gradientTransform="matrix(1 0 0 1 -365.0552 522.7495)">
			<stop  offset="0" style="stop-color:#83C179"/>
			<stop  offset="1" style="stop-color:#75CAE4"/>
		</linearGradient>
		<path fill="url(#SVGID_1_)" d="M45.885,93.153C20.309,93.153-0.5,72.345-0.5,46.768S20.309,0.382,45.885,0.382
			c25.577,0,46.386,20.809,46.386,46.386S71.462,93.153,45.885,93.153z M45.885,5.383C23.066,5.383,4.5,23.948,4.5,46.769
			c0,22.819,18.565,41.385,41.385,41.385s41.386-18.565,41.386-41.385C87.27,23.948,68.705,5.383,45.885,5.383z"/>
	</g>
	<g>
		<g>
			
				<linearGradient id="SVGID_2_" gradientUnits="userSpaceOnUse" x1="400.6982" y1="-464.8575" x2="400.6982" y2="-490.0575" gradientTransform="matrix(1 0 0 1 -365.0552 522.7495)">
				<stop  offset="0" style="stop-color:#83C179"/>
				<stop  offset="1" style="stop-color:#75CAE4"/>
			</linearGradient>
			<path fill="url(#SVGID_2_)" d="M41.668,57.892H29.545v-25.2h12.196v3.96h-8.18v6.372h5.002l-1.132,3.78h-3.87v7.487h8.105
				L41.668,57.892L41.668,57.892z"/>
		</g>
		<g>
			
				<linearGradient id="SVGID_3_" gradientUnits="userSpaceOnUse" x1="410.6112" y1="-464.8565" x2="410.6112" y2="-468.4935" gradientTransform="matrix(1 0 0 1 -365.0552 522.7495)">
				<stop  offset="0" style="stop-color:#83C179"/>
				<stop  offset="1" style="stop-color:#75CAE4"/>
			</linearGradient>
			<path fill="url(#SVGID_3_)" d="M47.4,56.092c0,0.48-0.184,0.9-0.548,1.261c-0.365,0.359-0.805,0.54-1.314,0.54
				c-0.487,0-0.913-0.181-1.278-0.54c-0.364-0.36-0.548-0.78-0.548-1.261c0-0.504,0.184-0.936,0.548-1.296
				c0.365-0.359,0.791-0.54,1.278-0.54c0.511,0,0.949,0.181,1.314,0.54C47.218,55.156,47.4,55.587,47.4,56.092z"/>
		</g>
		<g>
			
				<linearGradient id="SVGID_4_" gradientUnits="userSpaceOnUse" x1="421.2922" y1="-464.8575" x2="421.2922" y2="-490.0575" gradientTransform="matrix(1 0 0 1 -365.0552 522.7495)">
				<stop  offset="0" style="stop-color:#83C179"/>
				<stop  offset="1" style="stop-color:#75CAE4"/>
			</linearGradient>
			<path fill="url(#SVGID_4_)" d="M58.173,57.892h-4.018V36.688h-5.258v-3.996h14.68v3.996h-5.404L58.173,57.892L58.173,57.892z"/>
		</g>
		<g>
			
				<linearGradient id="SVGID_5_" gradientUnits="userSpaceOnUse" x1="426.7887" y1="-464.8565" x2="426.7887" y2="-468.4935" gradientTransform="matrix(1 0 0 1 -365.0552 522.7495)">
				<stop  offset="0" style="stop-color:#83C179"/>
				<stop  offset="1" style="stop-color:#75CAE4"/>
			</linearGradient>
			<path fill="url(#SVGID_5_)" d="M63.577,56.092c0,0.48-0.183,0.9-0.548,1.261c-0.365,0.359-0.804,0.54-1.314,0.54
				c-0.486,0-0.912-0.181-1.277-0.54c-0.365-0.36-0.548-0.78-0.548-1.261c0-0.504,0.183-0.936,0.548-1.296
				c0.365-0.359,0.791-0.54,1.277-0.54c0.512,0,0.949,0.181,1.314,0.54C63.395,55.156,63.577,55.587,63.577,56.092z"/>
		</g>
	</g>
</g>
</svg>
